<?xml version="1.0" encoding="UTF-8" standalone="no"?>
<!DOCTYPE svg PUBLIC "-//W3C//DTD SVG 1.1//EN"
 "http://www.w3.org/Graphics/SVG/1.1/DTD/svg11.dtd">
<!-- Generated by graphviz version 2.44.0 (0)
 -->
<!-- Pages: 1 -->
<svg width="638pt" height="260pt"
 viewBox="0.00 0.00 638.00 260.00" xmlns="http://www.w3.org/2000/svg" xmlns:xlink="http://www.w3.org/1999/xlink">
<g id="graph0" class="graph" transform="scale(1 1) rotate(0) translate(4 256)">
<polygon fill="white" stroke="transparent" points="-4,4 -4,-256 634,-256 634,4 -4,4"/>
<!-- a0 -->
<g id="node1" class="node">
<title>a0</title>
<ellipse fill="none" stroke="black" cx="27" cy="-234" rx="27" ry="18"/>
<text text-anchor="middle" x="27" y="-230.3" font-family="Times-Roman" font-size="14.00">a0</text>
</g>
<!-- a1 -->
<g id="node2" class="node">
<title>a1</title>
<ellipse fill="none" stroke="black" cx="99" cy="-234" rx="27" ry="18"/>
<text text-anchor="middle" x="99" y="-230.3" font-family="Times-Roman" font-size="14.00">a1</text>
</g>
<!-- a0&#45;&gt;a1 -->
<!-- b0 -->
<g id="node7" class="node">
<title>b0</title>
<ellipse fill="none" stroke="black" cx="99" cy="-162" rx="27" ry="18"/>
<text text-anchor="middle" x="99" y="-158.3" font-family="Times-Roman" font-size="14.00">b0</text>
</g>
<!-- a0&#45;&gt;b0 -->
<g id="edge6" class="edge">
<title>a0&#45;&gt;b0</title>
<path fill="none" stroke="black" d="M41.57,-218.83C51.75,-208.94 65.52,-195.55 77.03,-184.36"/>
<polygon fill="black" stroke="black" points="79.47,-186.87 84.2,-177.38 74.59,-181.85 79.47,-186.87"/>
</g>
<!-- a2 -->
<g id="node3" class="node">
<title>a2</title>
<ellipse fill="none" stroke="black" cx="171" cy="-234" rx="27" ry="18"/>
<text text-anchor="middle" x="171" y="-230.3" font-family="Times-Roman" font-size="14.00">a2</text>
</g>
<!-- a1&#45;&gt;a2 -->
<!-- a1&#45;&gt;b0 -->
<g id="edge7" class="edge">
<title>a1&#45;&gt;b0</title>
<path fill="none" stroke="black" d="M99,-215.7C99,-207.98 99,-198.71 99,-190.11"/>
<polygon fill="black" stroke="black" points="102.5,-190.1 99,-180.1 95.5,-190.1 102.5,-190.1"/>
</g>
<!-- a3 -->
<g id="node4" class="node">
<title>a3</title>
<ellipse fill="none" stroke="black" cx="243" cy="-234" rx="27" ry="18"/>
<text text-anchor="middle" x="243" y="-230.3" font-family="Times-Roman" font-size="14.00">a3</text>
</g>
<!-- a2&#45;&gt;a3 -->
<!-- b1 -->
<g id="node8" class="node">
<title>b1</title>
<ellipse fill="none" stroke="black" cx="207" cy="-162" rx="27" ry="18"/>
<text text-anchor="middle" x="207" y="-158.3" font-family="Times-Roman" font-size="14.00">b1</text>
</g>
<!-- a2&#45;&gt;b1 -->
<g id="edge8" class="edge">
<title>a2&#45;&gt;b1</title>
<path fill="none" stroke="black" d="M179.35,-216.76C183.71,-208.28 189.15,-197.71 194.04,-188.2"/>
<polygon fill="black" stroke="black" points="197.23,-189.64 198.7,-179.15 191.01,-186.44 197.23,-189.64"/>
</g>
<!-- a4 -->
<g id="node5" class="node">
<title>a4</title>
<ellipse fill="none" stroke="black" cx="315" cy="-234" rx="27" ry="18"/>
<text text-anchor="middle" x="315" y="-230.3" font-family="Times-Roman" font-size="14.00">a4</text>
</g>
<!-- a3&#45;&gt;a4 -->
<!-- a3&#45;&gt;b1 -->
<g id="edge9" class="edge">
<title>a3&#45;&gt;b1</title>
<path fill="none" stroke="black" d="M234.65,-216.76C230.29,-208.28 224.85,-197.71 219.96,-188.2"/>
<polygon fill="black" stroke="black" points="222.99,-186.44 215.3,-179.15 216.77,-189.64 222.99,-186.44"/>
</g>
<!-- a5 -->
<g id="node6" class="node">
<title>a5</title>
<ellipse fill="none" stroke="black" cx="387" cy="-234" rx="27" ry="18"/>
<text text-anchor="middle" x="387" y="-230.3" font-family="Times-Roman" font-size="14.00">a5</text>
</g>
<!-- a4&#45;&gt;a5 -->
<!-- b2 -->
<g id="node9" class="node">
<title>b2</title>
<ellipse fill="none" stroke="black" cx="387" cy="-162" rx="27" ry="18"/>
<text text-anchor="middle" x="387" y="-158.3" font-family="Times-Roman" font-size="14.00">b2</text>
</g>
<!-- a4&#45;&gt;b2 -->
<g id="edge10" class="edge">
<title>a4&#45;&gt;b2</title>
<path fill="none" stroke="black" d="M329.57,-218.83C339.75,-208.94 353.52,-195.55 365.03,-184.36"/>
<polygon fill="black" stroke="black" points="367.47,-186.87 372.2,-177.38 362.59,-181.85 367.47,-186.87"/>
</g>
<!-- a5&#45;&gt;b2 -->
<g id="edge11" class="edge">
<title>a5&#45;&gt;b2</title>
<path fill="none" stroke="black" d="M387,-215.7C387,-207.98 387,-198.71 387,-190.11"/>
<polygon fill="black" stroke="black" points="390.5,-190.1 387,-180.1 383.5,-190.1 390.5,-190.1"/>
</g>
<!-- c0 -->
<g id="node15" class="node">
<title>c0</title>
<ellipse fill="none" stroke="black" cx="207" cy="-90" rx="27" ry="18"/>
<text text-anchor="middle" x="207" y="-86.3" font-family="Times-Roman" font-size="14.00">c0</text>
</g>
<!-- b0&#45;&gt;c0 -->
<g id="edge15" class="edge">
<title>b0&#45;&gt;c0</title>
<path fill="none" stroke="black" d="M117.81,-148.81C135,-137.67 160.62,-121.06 179.99,-108.5"/>
<polygon fill="black" stroke="black" points="181.92,-111.43 188.4,-103.05 178.11,-105.56 181.92,-111.43"/>
</g>
<!-- b1&#45;&gt;c0 -->
<g id="edge16" class="edge">
<title>b1&#45;&gt;c0</title>
<path fill="none" stroke="black" d="M207,-143.7C207,-135.98 207,-126.71 207,-118.11"/>
<polygon fill="black" stroke="black" points="210.5,-118.1 207,-108.1 203.5,-118.1 210.5,-118.1"/>
</g>
<!-- c1 -->
<g id="node16" class="node">
<title>c1</title>
<ellipse fill="none" stroke="black" cx="423" cy="-90" rx="27" ry="18"/>
<text text-anchor="middle" x="423" y="-86.3" font-family="Times-Roman" font-size="14.00">c1</text>
</g>
<!-- b2&#45;&gt;c1 -->
<g id="edge17" class="edge">
<title>b2&#45;&gt;c1</title>
<path fill="none" stroke="black" d="M395.35,-144.76C399.71,-136.28 405.15,-125.71 410.04,-116.2"/>
<polygon fill="black" stroke="black" points="413.23,-117.64 414.7,-107.15 407.01,-114.44 413.23,-117.64"/>
</g>
<!-- a6 -->
<g id="node10" class="node">
<title>a6</title>
<ellipse fill="none" stroke="black" cx="459" cy="-234" rx="27" ry="18"/>
<text text-anchor="middle" x="459" y="-230.3" font-family="Times-Roman" font-size="14.00">a6</text>
</g>
<!-- b3 -->
<g id="node11" class="node">
<title>b3</title>
<ellipse fill="none" stroke="black" cx="459" cy="-162" rx="27" ry="18"/>
<text text-anchor="middle" x="459" y="-158.3" font-family="Times-Roman" font-size="14.00">b3</text>
</g>
<!-- a6&#45;&gt;b3 -->
<g id="edge12" class="edge">
<title>a6&#45;&gt;b3</title>
<path fill="none" stroke="black" d="M459,-215.7C459,-207.98 459,-198.71 459,-190.11"/>
<polygon fill="black" stroke="black" points="462.5,-190.1 459,-180.1 455.5,-190.1 462.5,-190.1"/>
</g>
<!-- b3&#45;&gt;c1 -->
<g id="edge18" class="edge">
<title>b3&#45;&gt;c1</title>
<path fill="none" stroke="black" d="M450.65,-144.76C446.29,-136.28 440.85,-125.71 435.96,-116.2"/>
<polygon fill="black" stroke="black" points="438.99,-114.44 431.3,-107.15 432.77,-117.64 438.99,-114.44"/>
</g>
<!-- a7 -->
<g id="node12" class="node">
<title>a7</title>
<ellipse fill="none" stroke="black" cx="531" cy="-234" rx="27" ry="18"/>
<text text-anchor="middle" x="531" y="-230.3" font-family="Times-Roman" font-size="14.00">a7</text>
</g>
<!-- a7&#45;&gt;b3 -->
<g id="edge13" class="edge">
<title>a7&#45;&gt;b3</title>
<path fill="none" stroke="black" d="M516.43,-218.83C506.25,-208.94 492.48,-195.55 480.97,-184.36"/>
<polygon fill="black" stroke="black" points="483.41,-181.85 473.8,-177.38 478.53,-186.87 483.41,-181.85"/>
</g>
<!-- a8 -->
<g id="node13" class="node">
<title>a8</title>
<ellipse fill="none" stroke="black" cx="603" cy="-234" rx="27" ry="18"/>
<text text-anchor="middle" x="603" y="-230.3" font-family="Times-Roman" font-size="14.00">a8</text>
</g>
<!-- b4 -->
<g id="node14" class="node">
<title>b4</title>
<ellipse fill="none" stroke="black" cx="567" cy="-162" rx="27" ry="18"/>
<text text-anchor="middle" x="567" y="-158.3" font-family="Times-Roman" font-size="14.00">b4</text>
</g>
<!-- a8&#45;&gt;b4 -->
<g id="edge14" class="edge">
<title>a8&#45;&gt;b4</title>
<path fill="none" stroke="black" d="M594.65,-216.76C590.29,-208.28 584.85,-197.71 579.96,-188.2"/>
<polygon fill="black" stroke="black" points="582.99,-186.44 575.3,-179.15 576.77,-189.64 582.99,-186.44"/>
</g>
<!-- c2 -->
<g id="node17" class="node">
<title>c2</title>
<ellipse fill="none" stroke="black" cx="531" cy="-90" rx="27" ry="18"/>
<text text-anchor="middle" x="531" y="-86.3" font-family="Times-Roman" font-size="14.00">c2</text>
</g>
<!-- b4&#45;&gt;c2 -->
<g id="edge19" class="edge">
<title>b4&#45;&gt;c2</title>
<path fill="none" stroke="black" d="M558.65,-144.76C554.29,-136.28 548.85,-125.71 543.96,-116.2"/>
<polygon fill="black" stroke="black" points="546.99,-114.44 539.3,-107.15 540.77,-117.64 546.99,-114.44"/>
</g>
<!-- d1 -->
<g id="node18" class="node">
<title>d1</title>
<ellipse fill="none" stroke="black" cx="423" cy="-18" rx="27" ry="18"/>
<text text-anchor="middle" x="423" y="-14.3" font-family="Times-Roman" font-size="14.00">d1</text>
</g>
<!-- c0&#45;&gt;d1 -->
<g id="edge20" class="edge">
<title>c0&#45;&gt;d1</title>
<path fill="none" stroke="black" d="M230.94,-81.24C269.56,-68.73 345.72,-44.05 389.64,-29.81"/>
<polygon fill="black" stroke="black" points="390.85,-33.1 399.28,-26.69 388.69,-26.44 390.85,-33.1"/>
</g>
<!-- c1&#45;&gt;d1 -->
<g id="edge21" class="edge">
<title>c1&#45;&gt;d1</title>
<path fill="none" stroke="black" d="M423,-71.7C423,-63.98 423,-54.71 423,-46.11"/>
<polygon fill="black" stroke="black" points="426.5,-46.1 423,-36.1 419.5,-46.1 426.5,-46.1"/>
</g>
<!-- c2&#45;&gt;d1 -->
<g id="edge22" class="edge">
<title>c2&#45;&gt;d1</title>
<path fill="none" stroke="black" d="M512.19,-76.81C495,-65.67 469.38,-49.06 450.01,-36.5"/>
<polygon fill="black" stroke="black" points="451.89,-33.56 441.6,-31.05 448.08,-39.43 451.89,-33.56"/>
</g>
</g>
</svg>
